<svg width="92" height="92" viewBox="0 0 92 92" fill="none" xmlns="http://www.w3.org/2000/svg">
<rect width="92" height="92" rx="46" fill="#0F0F0F"/>
<path d="M18.8182 22.303H21.6061C26.2252 22.303 29.9698 26.0476 29.9698 30.6667V69.697H27.1819C22.5628 69.697 18.8182 65.9524 18.8182 61.3333V22.303Z" fill="#32F191"/>
<path d="M32.7577 40.4242L32.7577 36.9394C32.7577 32.3203 36.5022 28.5758 41.1213 28.5758L73.1819 28.5758L73.1819 32.0606C73.1819 36.6797 69.4374 40.4242 64.8183 40.4242L32.7577 40.4242Z" fill="#008844"/>
<path d="M41.1213 55.0606C36.5022 55.0606 32.7577 51.3161 32.7577 46.697L32.7577 43.2121L64.8183 43.2121C69.4374 43.2121 73.1819 46.9566 73.1819 51.5758L73.1819 55.0606L41.1213 55.0606Z" fill="#008844"/>
<path d="M32.7577 69.697L32.7577 57.8485L73.1819 57.8485L73.1819 61.3333C73.1819 65.9524 69.4374 69.697 64.8183 69.697L32.7577 69.697Z" fill="#32F191"/>
</svg>
